<svg version="1.0" xmlns="http://www.w3.org/2000/svg"
 width="100px" height="80px" viewBox="0 0 1000.000000 1000.000000"
 preserveAspectRatio="xMidYMid meet">

<g transform="translate(0.000000,1000.000000) scale(0.100000,-0.100000)"
fill="#fff" stroke="none">
<path d="M2507 6613 c-6 -6 -10 -62 -4 -64 1 0 38 -2 82 -5 161 -11 293 -57
388 -137 85 -71 181 -227 282 -462 26 -60 55 -128 65 -150 10 -22 45 -112 80
-200 34 -88 77 -198 95 -245 19 -47 149 -382 290 -745 142 -363 277 -709 300
-770 220 -561 465 -1193 465 -1202 0 -5 8 -17 18 -26 22 -21 117 -23 129 -4
10 16 50 109 115 267 28 69 55 129 59 134 5 6 37 -10 77 -36 204 -136 431
-204 712 -215 352 -13 635 69 900 262 140 102 315 305 402 465 183 340 184
775 1 1122 -149 283 -448 547 -753 666 -70 27 -246 72 -285 72 -43 0 -75 10
-75 24 0 9 93 240 134 331 8 17 33 75 57 130 113 261 208 417 319 526 108 106
259 179 395 191 27 3 30 6 30 38 l0 35 -650 0 -650 0 -3 -32 -3 -31 58 -7
c200 -21 302 -96 353 -261 51 -168 27 -354 -86 -663 -71 -194 -98 -253 -119
-261 -11 -4 -60 -10 -110 -14 -231 -17 -478 -113 -685 -266 -149 -111 -335
-318 -393 -437 -20 -42 -44 -56 -52 -30 -4 15 -104 289 -151 417 -20 52 -44
118 -54 145 -10 28 -34 93 -53 145 -263 711 -257 691 -257 811 0 88 3 107 29
163 36 81 98 148 165 181 56 27 209 64 267 65 44 0 64 20 55 55 l-6 25 -964 0
c-529 0 -966 -3 -969 -7z m3153 -1345 c0 -11 -689 -1709 -697 -1718 -14 -15
-44 98 -69 263 -18 123 -18 405 1 532 39 260 134 480 288 671 114 141 247 226
405 259 59 12 72 11 72 -7z m231 -12 c296 -90 524 -407 635 -883 26 -109 28
-133 27 -328 0 -190 -2 -222 -27 -332 -85 -389 -235 -647 -460 -794 -265 -174
-596 -119 -835 137 -64 67 -148 189 -190 272 -21 40 -21 46 -8 75 8 18 61 145
117 282 56 138 110 268 120 290 9 22 54 128 98 235 44 107 103 251 132 320 29
69 101 244 161 390 140 339 145 350 167 350 9 0 38 -7 63 -14z"/>
</g>
</svg>
