<?xml version="1.0" encoding="iso-8859-1"?>
<!-- Uploaded to: SVG Repo, www.svgrepo.com, Generator: SVG Repo Mixer Tools -->
<svg fill="#ccc" version="1.1" id="Layer_1" xmlns="http://www.w3.org/2000/svg" xmlns:xlink="http://www.w3.org/1999/xlink" 
	 viewBox="0 0 512 512" xml:space="preserve">
<g>
	<g>
		<path d="M380.436,210.876h-1.274c-16.168,0-29.275,13.107-29.275,29.275c0-16.168-13.106-29.275-29.275-29.275h-1.274
			c-16.169,0-29.275,13.107-29.275,29.275c0-16.168-13.106-29.275-29.275-29.275h-1.274c-16.141,0-29.229,13.063-29.273,29.192
			v-82.597c0-16.173-13.113-29.275-29.275-29.275h-1.276c-16.173,0-29.275,13.102-29.275,29.275v121.126v27.138
			c0,0-29.234,29.898-29.566,59.505c-0.01,0.145-0.01,0.301-0.01,0.446c0,29.742,23.87,54.847,23.87,54.847L209.845,512h22.985
			h142.997l26.277-65.013c0,0,7.604-22.128,7.604-46.33c0-7.614,0-22.512,0-39.359h0.002V240.151
			C409.711,223.983,396.604,210.876,380.436,210.876z"/>
	</g>
</g>
<g>
	<g>
		<rect x="184.099" width="31.122" height="68.157"/>
	</g>
</g>
<g>
	<g>
		<rect x="115.225" y="21.778" transform="matrix(0.9064 -0.4223 0.4223 0.9064 -11.3533 60.4588)" width="31.12" height="68.153"/>
	</g>
</g>
<g>
	<g>
		
			<rect x="233.564" y="40.296" transform="matrix(0.4223 -0.9064 0.9064 0.4223 103.9793 274.8686)" width="68.153" height="31.12"/>
	</g>
</g>
</svg>